<svg xmlns="http://www.w3.org/2000/svg" viewBox="0 0 14.11 14.11"><defs><style>.cls-1{fill:#575757;fill-rule:evenodd;}</style></defs><title>cycle_icon</title><g id="Layer_2" data-name="Layer 2"><g id="Layer_2-2" data-name="Layer 2"><path class="cls-1" d="M7.05,0a7.06,7.06,0,1,0,7.06,7.05A7.05,7.05,0,0,0,7.05,0Zm0,13.41a6.36,6.36,0,1,1,6.36-6.36A6.35,6.35,0,0,1,7.05,13.41Z"/><path class="cls-1" d="M10.29,6.87H8.47A1.48,1.48,0,0,0,7,5.66a1.37,1.37,0,0,0-.79.25L4,3.56a.27.27,0,0,0-.42,0,.32.32,0,0,0,0,.43L5.83,6.34a1.58,1.58,0,0,0-.25.87,1.46,1.46,0,0,0,2.9.28h1.81a.31.31,0,0,0,0-.62ZM7.05,8.2a1,1,0,1,1,1-1A1,1,0,0,1,7.05,8.2Z"/></g></g></svg>