<svg xmlns="http://www.w3.org/2000/svg" xmlns:xlink="http://www.w3.org/1999/xlink" viewBox="0 0 21.78 21.65"><defs><style>.cls-1,.cls-2,.cls-3{fill:#ee626a;}.cls-1{clip-rule:evenodd;}.cls-3{fill-rule:evenodd;}.cls-4{clip-path:url(#clip-path);}.cls-5{clip-path:url(#clip-path-2);}.cls-6{clip-path:url(#clip-path-3);}</style><clipPath id="clip-path"><path class="cls-1" d="M13.64,13.9a4.17,4.17,0,1,1-4-7.11V4.19a6.7,6.7,0,0,0,1.24,13.28h0a6.66,6.66,0,0,0,5-2.27Z"/></clipPath><clipPath id="clip-path-2"><rect class="cls-2" x="4.19" y="3.23" width="13.4" height="14.24"/></clipPath><clipPath id="clip-path-3"><path class="cls-1" d="M15.08,10.78a4.08,4.08,0,0,1-.12.93L17.2,13a6.52,6.52,0,0,0,.39-2.22,6.71,6.71,0,0,0-5.41-6.59V6.8a4.12,4.12,0,0,1,2.9,4"/></clipPath></defs><title>data_red</title><g id="Layer_2" data-name="Layer 2"><g id="Layer_2-2" data-name="Layer 2"><path class="cls-3" d="M13.64,13.9a4.17,4.17,0,1,1-4-7.11V4.19a6.7,6.7,0,0,0,1.24,13.28h0a6.66,6.66,0,0,0,5-2.27Z"/><g class="cls-4"><rect class="cls-2" x="4.19" y="3.23" width="13.4" height="14.24"/><g class="cls-5"><rect class="cls-2" width="20.09" height="21.65"/></g></g><path class="cls-3" d="M15.08,10.78a4.08,4.08,0,0,1-.12.93L17.2,13a6.52,6.52,0,0,0,.39-2.22,6.71,6.71,0,0,0-5.41-6.59V6.8a4.12,4.12,0,0,1,2.9,4"/><g class="cls-6"><rect class="cls-2" x="4.19" y="3.23" width="13.4" height="14.24"/><g class="cls-5"><rect class="cls-2" x="7.99" y="0.01" width="13.78" height="17.19"/></g></g></g></g></svg>