<svg xmlns="http://www.w3.org/2000/svg" xmlns:xlink="http://www.w3.org/1999/xlink" viewBox="0 0 29.51 22.67"><defs><style>.cls-1,.cls-2{fill:none;}.cls-2{clip-rule:evenodd;}.cls-3{clip-path:url(#clip-path);}.cls-4{clip-path:url(#clip-path-2);}.cls-5{fill:#224dba;}.cls-6{clip-path:url(#clip-path-3);}.cls-7{clip-path:url(#clip-path-4);}.cls-8{fill:#fff;}</style><clipPath id="clip-path" transform="translate(-22.17 -372.81)"><rect class="cls-1" x="24.69" y="375.33" width="24.47" height="17.63" rx="3.34" ry="3.34"/></clipPath><clipPath id="clip-path-2" transform="translate(-22.17 -372.81)"><rect class="cls-1" x="0.5" width="188.92" height="549.64"/></clipPath><clipPath id="clip-path-3" transform="translate(-22.17 -372.81)"><path class="cls-2" d="M43,383.34l.4,2H42.31Zm2,3.82L44,381.93H42.83a.6.6,0,0,0-.56.4l-2,4.83h1.39l.28-.76h1.71l.16.76Zm-6.6-3.78a.53.53,0,0,1,.56-.45,2.49,2.49,0,0,1,1.31.24l.24-1.12a3.41,3.41,0,0,0-1.24-.24c-1.31,0-2.26.72-2.26,1.73,0,.76.67,1.16,1.15,1.41s.72.4.68.64-.4.52-.8.52a3.36,3.36,0,0,1-1.39-.32l-.24,1.13a3.83,3.83,0,0,0,1.47.28c1.47,0,2.39-.68,2.39-1.77C40.32,384.06,38.45,384,38.45,383.38Zm-2.87,3.78H34.23l1.11-5.23H36.7Zm-2.94,0H31.21L30.13,383a.67.67,0,0,0-.32-.44,4.49,4.49,0,0,0-1.31-.44v-.16h2.31a.61.61,0,0,1,.6.52l.55,3,1.43-3.54h1.4Z"/></clipPath><clipPath id="clip-path-4" transform="translate(-22.17 -372.81)"><rect class="cls-1" width="188.92" height="549.64"/></clipPath></defs><title>Visa</title><g id="Layer_2" data-name="Layer 2"><g id="Layer_2-2" data-name="Layer 2"><g class="cls-3"><g class="cls-4"><rect class="cls-5" width="29.51" height="22.67"/></g></g><g class="cls-6"><g class="cls-7"><rect class="cls-8" x="3.81" y="6.48" width="21.59" height="10.44"/></g></g></g></g></svg>