<svg xmlns="http://www.w3.org/2000/svg" xmlns:xlink="http://www.w3.org/1999/xlink" viewBox="0 0 25.15 14.49"><defs><style>.cls-1{fill:none;clip-rule:evenodd;}.cls-2{clip-path:url(#clip-path);}.cls-3{fill:#fff;}</style><clipPath id="clip-path"><path class="cls-1" d="M17.9,3.14c-2.13,0-4.31,2-5.33,3-1-1.05-3.2-3-5.32-3a4.11,4.11,0,1,0,0,8.21c2.12,0,4.3-2,5.32-3,1,1.05,3.2,3,5.33,3a4.11,4.11,0,0,0,0-8.21M7.25,9.87a2.63,2.63,0,1,1,0-5.25c1.47,0,3.34,1.61,4.32,2.63-1,1-2.85,2.62-4.32,2.62m10.65,0c-1.48,0-3.34-1.61-4.33-2.62,1-1,2.85-2.63,4.33-2.63a2.63,2.63,0,0,1,0,5.25"/></clipPath></defs><title>unlimited_plan</title><g id="Layer_2" data-name="Layer 2"><g id="Layer_2-2" data-name="Layer 2"><g class="cls-2"><rect class="cls-3" width="25.15" height="14.49"/></g></g></g></svg>