<svg xmlns="http://www.w3.org/2000/svg" viewBox="0 0 21.96 21.96"><defs><style>.cls-1{fill:#5f90ff;}</style></defs><title>Asset 5</title><g id="Layer_2" data-name="Layer 2"><g id="Layer_2-2" data-name="Layer 2"><path class="cls-1" d="M14.77,12.14a.49.49,0,1,1,1,0v2.63a1.47,1.47,0,0,1-1.47,1.48H7.38a1.47,1.47,0,0,1-1.47-1.48V7.88A1.47,1.47,0,0,1,7.38,6.4H10a.49.49,0,1,1,0,1H7.38a.5.5,0,0,0-.49.5v6.89a.49.49,0,0,0,.49.49h6.9a.49.49,0,0,0,.49-.49Z"/><path class="cls-1" d="M14.63,5.56l2,2a.48.48,0,0,1,0,.7l-4.92,4.92a.5.5,0,0,1-.35.14h-2a.49.49,0,0,1-.49-.49v-2A.49.49,0,0,1,9,10.48l4.92-4.92A.5.5,0,0,1,14.63,5.56ZM9.85,11v1.28h1.27l4.43-4.43L14.28,6.6Z"/><path class="cls-1" d="M11,20.81A9.83,9.83,0,1,0,1.16,11,9.83,9.83,0,0,0,11,20.81ZM11,22A11,11,0,1,1,22,11,11,11,0,0,1,11,22Z"/></g></g></svg>